<?xml version="1.0" encoding="UTF-8"?>
<svg xmlns="http://www.w3.org/2000/svg" xmlns:xlink="http://www.w3.org/1999/xlink" width="16px" height="16px" viewBox="0 0 16 16" version="1.1">
<defs>
<clipPath id="clip1">
  <path d="M 3.191406 1.285156 L 7.703125 1.285156 L 7.703125 5.808594 L 3.191406 5.808594 Z M 3.191406 1.285156 "/>
</clipPath>
<clipPath id="clip2">
  <path d="M 6.636719 4.742188 L 12.808594 4.742188 L 12.808594 10.902344 L 6.636719 10.902344 Z M 6.636719 4.742188 "/>
</clipPath>
<clipPath id="clip3">
  <path d="M 7 5 L 12.679688 5 L 12.679688 10.429688 L 7 10.429688 Z M 7 5 "/>
</clipPath>
<clipPath id="clip4">
  <path d="M 5.910156 9.128906 L 9.496094 3.992188 L 13.910156 7.070312 L 10.328125 12.207031 Z M 5.910156 9.128906 "/>
</clipPath>
<clipPath id="clip5">
  <path d="M 5.910156 9.128906 L 9.496094 3.992188 L 13.910156 7.070312 L 10.328125 12.207031 Z M 5.910156 9.128906 "/>
</clipPath>
<clipPath id="clip6">
  <path d="M 5.910156 9.128906 L 9.496094 3.992188 L 13.910156 7.070312 L 10.328125 12.207031 Z M 5.910156 9.128906 "/>
</clipPath>
<clipPath id="clip7">
  <path d="M 7 4.976562 L 12.679688 4.976562 L 12.679688 10.429688 L 7 10.429688 Z M 7 4.976562 "/>
</clipPath>
<clipPath id="clip8">
  <path d="M 5.910156 9.128906 L 9.496094 3.992188 L 13.910156 7.070312 L 10.328125 12.207031 Z M 5.910156 9.128906 "/>
</clipPath>
<clipPath id="clip9">
  <path d="M 5.910156 9.128906 L 9.496094 3.992188 L 13.910156 7.070312 L 10.328125 12.207031 Z M 5.910156 9.128906 "/>
</clipPath>
<clipPath id="clip10">
  <path d="M 5.910156 9.128906 L 9.496094 3.992188 L 13.910156 7.070312 L 10.328125 12.207031 Z M 5.910156 9.128906 "/>
</clipPath>
<clipPath id="clip11">
  <path d="M 8.769531 6.753906 L 11 6.753906 L 11 9 L 8.769531 9 Z M 8.769531 6.753906 "/>
</clipPath>
<clipPath id="clip12">
  <path d="M 5.910156 9.128906 L 9.496094 3.992188 L 13.910156 7.070312 L 10.328125 12.207031 Z M 5.910156 9.128906 "/>
</clipPath>
<clipPath id="clip13">
  <path d="M 5.910156 9.128906 L 9.496094 3.992188 L 13.910156 7.070312 L 10.328125 12.207031 Z M 5.910156 9.128906 "/>
</clipPath>
<clipPath id="clip14">
  <path d="M 5.910156 9.128906 L 9.496094 3.992188 L 13.910156 7.070312 L 10.328125 12.207031 Z M 5.910156 9.128906 "/>
</clipPath>
<clipPath id="clip15">
  <path d="M 7.347656 5.332031 L 12.324219 5.332031 L 12.324219 10.3125 L 7.347656 10.3125 Z M 7.347656 5.332031 "/>
</clipPath>
<clipPath id="clip16">
  <path d="M 5.910156 9.128906 L 9.496094 3.992188 L 13.910156 7.070312 L 10.328125 12.207031 Z M 5.910156 9.128906 "/>
</clipPath>
<clipPath id="clip17">
  <path d="M 5.910156 9.128906 L 9.496094 3.992188 L 13.910156 7.070312 L 10.328125 12.207031 Z M 5.910156 9.128906 "/>
</clipPath>
<clipPath id="clip18">
  <path d="M 5.910156 9.128906 L 9.496094 3.992188 L 13.910156 7.070312 L 10.328125 12.207031 Z M 5.910156 9.128906 "/>
</clipPath>
</defs>
<g id="surface1">
<path style=" stroke:none;fill-rule:nonzero;fill:rgb(36.470588%,37.647059%,40.392157%);fill-opacity:1;" d="M 7.054688 5.089844 L 6.542969 5.089844 L 8.183594 6.730469 L 8.628906 6.28125 L 7.054688 4.707031 L 7.054688 5.089844 "/>
<path style=" stroke:none;fill-rule:nonzero;fill:rgb(49.411765%,47.058824%,48.235294%);fill-opacity:1;" d="M 3.507812 1.378906 C 3.296875 1.464844 3.195312 1.707031 3.28125 1.917969 C 3.28125 1.917969 3.316406 2.011719 3.402344 2.15625 C 3.441406 2.230469 3.492188 2.3125 3.558594 2.410156 C 3.621094 2.503906 3.695312 2.605469 3.78125 2.714844 C 3.867188 2.824219 3.960938 2.941406 4.066406 3.058594 C 4.175781 3.171875 4.289062 3.292969 4.414062 3.410156 C 4.542969 3.527344 4.683594 3.636719 4.832031 3.742188 C 4.980469 3.851562 5.136719 3.953125 5.289062 4.058594 C 5.441406 4.164062 5.589844 4.277344 5.722656 4.398438 C 5.859375 4.519531 5.980469 4.648438 6.089844 4.785156 C 6.308594 5.046875 6.492188 5.320312 6.628906 5.570312 C 6.648438 5.601562 6.664062 5.632812 6.679688 5.660156 L 7.5625 4.777344 C 7.53125 4.761719 7.503906 4.746094 7.472656 4.730469 C 7.222656 4.589844 6.949219 4.410156 6.683594 4.1875 C 6.550781 4.078125 6.421875 3.957031 6.300781 3.824219 C 6.179688 3.6875 6.066406 3.542969 5.960938 3.390625 C 5.851562 3.234375 5.75 3.078125 5.644531 2.929688 C 5.539062 2.78125 5.425781 2.640625 5.3125 2.515625 C 5.195312 2.386719 5.074219 2.273438 4.957031 2.167969 C 4.839844 2.0625 4.726562 1.964844 4.617188 1.878906 C 4.507812 1.792969 4.402344 1.71875 4.308594 1.65625 C 4.214844 1.59375 4.128906 1.539062 4.058594 1.5 C 3.914062 1.417969 3.820312 1.378906 3.820312 1.378906 C 3.722656 1.339844 3.613281 1.335938 3.507812 1.378906 "/>
<path style=" stroke:none;fill-rule:nonzero;fill:rgb(36.470588%,30.196078%,29.019608%);fill-opacity:1;" d="M 9.78125 4.914062 C 11.417969 4.914062 12.746094 6.242188 12.746094 7.878906 C 12.746094 9.515625 11.417969 10.84375 9.78125 10.84375 C 8.140625 10.84375 6.8125 9.515625 6.8125 7.878906 C 6.8125 6.242188 8.140625 4.914062 9.78125 4.914062 "/>
<path style=" stroke:none;fill-rule:nonzero;fill:rgb(29.019608%,29.411765%,30.980392%);fill-opacity:1;" d="M 9.78125 5.183594 C 11.269531 5.183594 12.476562 6.390625 12.476562 7.878906 C 12.476562 9.367188 11.269531 10.574219 9.78125 10.574219 C 8.289062 10.574219 7.082031 9.367188 7.082031 7.878906 C 7.082031 6.390625 8.289062 5.183594 9.78125 5.183594 "/>
<path style=" stroke:none;fill-rule:nonzero;fill:rgb(28.235294%,23.137255%,21.960784%);fill-opacity:1;" d="M 9.78125 5.671875 C 11 5.671875 11.984375 6.660156 11.984375 7.878906 C 11.984375 9.097656 11 10.085938 9.78125 10.085938 C 8.5625 10.085938 7.574219 9.097656 7.574219 7.878906 C 7.574219 6.660156 8.5625 5.671875 9.78125 5.671875 "/>
<path style=" stroke:none;fill-rule:nonzero;fill:rgb(20%,14.509804%,9.803922%);fill-opacity:1;" d="M 7.472656 6.015625 L 7.519531 6.054688 C 7.648438 5.894531 7.792969 5.746094 7.957031 5.617188 C 7.96875 5.605469 7.976562 5.589844 7.976562 5.574219 C 7.976562 5.558594 7.972656 5.539062 7.960938 5.527344 L 7.386719 4.953125 C 7.375 4.941406 7.359375 4.9375 7.34375 4.9375 C 7.328125 4.9375 7.3125 4.941406 7.300781 4.953125 L 6.855469 5.402344 C 6.832031 5.425781 6.832031 5.460938 6.855469 5.484375 L 7.429688 6.058594 C 7.441406 6.070312 7.457031 6.078125 7.476562 6.078125 C 7.492188 6.074219 7.507812 6.066406 7.519531 6.054688 L 7.472656 6.015625 L 7.515625 5.976562 L 6.980469 5.441406 L 7.34375 5.082031 L 7.875 5.613281 L 7.917969 5.570312 L 7.878906 5.523438 C 7.714844 5.660156 7.5625 5.8125 7.425781 5.980469 L 7.472656 6.015625 L 7.515625 5.976562 L 7.472656 6.015625 "/>
<g clip-path="url(#clip1)" clip-rule="nonzero">
<path style=" stroke:none;fill-rule:nonzero;fill:rgb(20%,14.509804%,9.803922%);fill-opacity:1;" d="M 3.507812 1.378906 L 3.484375 1.324219 C 3.300781 1.398438 3.191406 1.578125 3.191406 1.761719 C 3.191406 1.824219 3.199219 1.882812 3.226562 1.941406 C 3.226562 1.945312 3.265625 2.039062 3.347656 2.1875 C 3.390625 2.261719 3.445312 2.347656 3.507812 2.441406 C 3.570312 2.539062 3.648438 2.644531 3.734375 2.753906 C 3.820312 2.863281 3.917969 2.980469 4.023438 3.097656 C 4.128906 3.214844 4.246094 3.335938 4.375 3.453125 C 4.503906 3.570312 4.644531 3.683594 4.796875 3.792969 C 4.945312 3.898438 5.105469 4 5.253906 4.109375 L 5.257812 4.109375 C 5.40625 4.214844 5.554688 4.324219 5.683594 4.441406 C 5.816406 4.5625 5.933594 4.6875 6.042969 4.820312 C 6.261719 5.082031 6.441406 5.351562 6.578125 5.601562 C 6.59375 5.628906 6.609375 5.660156 6.625 5.6875 C 6.632812 5.707031 6.652344 5.71875 6.667969 5.71875 C 6.6875 5.722656 6.707031 5.71875 6.722656 5.703125 L 6.9375 5.484375 L 7.605469 4.820312 C 7.617188 4.804688 7.625 4.785156 7.621094 4.769531 C 7.617188 4.75 7.605469 4.734375 7.589844 4.722656 C 7.5625 4.710938 7.53125 4.691406 7.5 4.675781 C 7.253906 4.539062 6.984375 4.359375 6.722656 4.140625 C 6.589844 4.035156 6.460938 3.914062 6.34375 3.785156 C 6.222656 3.652344 6.113281 3.507812 6.007812 3.355469 C 5.902344 3.203125 5.800781 3.046875 5.695312 2.894531 C 5.585938 2.746094 5.472656 2.601562 5.355469 2.472656 C 5.238281 2.34375 5.113281 2.230469 5 2.121094 C 4.878906 2.015625 4.765625 1.917969 4.652344 1.832031 C 4.542969 1.746094 4.4375 1.671875 4.34375 1.605469 C 4.246094 1.542969 4.160156 1.488281 4.085938 1.445312 C 3.941406 1.363281 3.847656 1.324219 3.84375 1.324219 C 3.785156 1.300781 3.726562 1.289062 3.664062 1.289062 C 3.605469 1.289062 3.542969 1.300781 3.484375 1.324219 L 3.53125 1.433594 C 3.574219 1.417969 3.617188 1.40625 3.664062 1.40625 C 3.710938 1.40625 3.757812 1.417969 3.800781 1.433594 L 3.820312 1.378906 L 3.792969 1.429688 L 3.796875 1.433594 C 3.804688 1.4375 3.890625 1.472656 4.027344 1.550781 C 4.097656 1.589844 4.183594 1.644531 4.277344 1.707031 C 4.371094 1.769531 4.472656 1.84375 4.582031 1.925781 C 4.6875 2.011719 4.800781 2.105469 4.917969 2.210938 C 5.035156 2.316406 5.152344 2.429688 5.265625 2.554688 C 5.382812 2.679688 5.492188 2.816406 5.597656 2.964844 C 5.703125 3.113281 5.804688 3.269531 5.910156 3.421875 C 6.019531 3.578125 6.132812 3.726562 6.253906 3.863281 C 6.378906 4 6.511719 4.121094 6.644531 4.234375 C 6.914062 4.457031 7.191406 4.640625 7.441406 4.78125 L 7.445312 4.78125 C 7.472656 4.796875 7.503906 4.8125 7.535156 4.832031 L 7.5625 4.777344 L 7.519531 4.734375 L 6.855469 5.402344 L 6.636719 5.621094 L 6.679688 5.660156 L 6.730469 5.632812 C 6.714844 5.605469 6.699219 5.574219 6.683594 5.542969 C 6.542969 5.289062 6.359375 5.015625 6.132812 4.746094 L 6.136719 4.746094 C 6.023438 4.609375 5.902344 4.476562 5.765625 4.355469 C 5.628906 4.230469 5.476562 4.117188 5.324219 4.007812 L 5.324219 4.011719 C 5.171875 3.902344 5.011719 3.800781 4.867188 3.695312 C 4.71875 3.589844 4.582031 3.480469 4.457031 3.367188 C 4.332031 3.253906 4.21875 3.132812 4.113281 3.015625 C 4.007812 2.902344 3.910156 2.789062 3.828125 2.679688 C 3.742188 2.570312 3.667969 2.46875 3.605469 2.375 C 3.542969 2.28125 3.492188 2.199219 3.453125 2.128906 L 3.453125 2.125 C 3.410156 2.054688 3.382812 2 3.363281 1.957031 C 3.351562 1.9375 3.347656 1.921875 3.339844 1.914062 C 3.339844 1.90625 3.339844 1.902344 3.335938 1.902344 L 3.335938 1.898438 C 3.316406 1.855469 3.308594 1.808594 3.308594 1.761719 C 3.308594 1.625 3.390625 1.492188 3.53125 1.433594 L 3.507812 1.378906 "/>
</g>
<g clip-path="url(#clip2)" clip-rule="nonzero">
<path style=" stroke:none;fill-rule:nonzero;fill:rgb(20%,14.509804%,9.803922%);fill-opacity:1;" d="M 9.78125 5.183594 L 9.78125 5.242188 C 10.507812 5.242188 11.167969 5.535156 11.644531 6.015625 C 12.121094 6.492188 12.417969 7.152344 12.417969 7.878906 C 12.417969 8.605469 12.121094 9.265625 11.644531 9.742188 C 11.167969 10.222656 10.507812 10.515625 9.78125 10.515625 C 9.050781 10.515625 8.394531 10.222656 7.914062 9.742188 C 7.4375 9.265625 7.144531 8.605469 7.144531 7.878906 C 7.144531 7.152344 7.4375 6.492188 7.914062 6.015625 C 8.394531 5.535156 9.050781 5.242188 9.78125 5.242188 L 9.78125 5.121094 C 8.257812 5.121094 7.023438 6.355469 7.023438 7.878906 C 7.023438 9.402344 8.257812 10.636719 9.78125 10.636719 C 11.300781 10.636719 12.535156 9.402344 12.535156 7.878906 C 12.535156 6.355469 11.300781 5.121094 9.78125 5.121094 Z M 7.472656 6.015625 L 7.425781 5.980469 C 7.007812 6.5 6.753906 7.160156 6.753906 7.878906 C 6.753906 9.550781 8.109375 10.90625 9.78125 10.90625 C 11.449219 10.90625 12.804688 9.550781 12.804688 7.878906 C 12.804688 6.207031 11.449219 4.851562 9.78125 4.851562 C 9.0625 4.851562 8.398438 5.105469 7.878906 5.523438 C 7.714844 5.660156 7.5625 5.8125 7.425781 5.980469 L 7.472656 6.015625 L 7.519531 6.054688 C 7.648438 5.894531 7.792969 5.746094 7.957031 5.617188 C 8.453125 5.214844 9.089844 4.972656 9.78125 4.972656 C 10.582031 4.972656 11.308594 5.296875 11.835938 5.824219 C 12.359375 6.351562 12.6875 7.074219 12.6875 7.878906 C 12.6875 8.683594 12.359375 9.40625 11.835938 9.933594 C 11.308594 10.460938 10.582031 10.785156 9.78125 10.785156 C 8.976562 10.785156 8.25 10.460938 7.722656 9.933594 C 7.199219 9.40625 6.875 8.683594 6.875 7.878906 C 6.875 7.1875 7.113281 6.554688 7.519531 6.054688 L 7.472656 6.015625 "/>
</g>
<path style=" stroke:none;fill-rule:nonzero;fill:rgb(20%,14.509804%,9.803922%);fill-opacity:1;" d="M 9.78125 5.671875 L 9.78125 5.730469 C 10.371094 5.730469 10.910156 5.972656 11.296875 6.359375 C 11.6875 6.75 11.925781 7.285156 11.925781 7.878906 C 11.925781 8.472656 11.6875 9.007812 11.296875 9.398438 C 10.910156 9.785156 10.371094 10.027344 9.78125 10.027344 C 9.1875 10.027344 8.652344 9.785156 8.261719 9.398438 C 7.875 9.007812 7.632812 8.472656 7.632812 7.878906 C 7.632812 7.285156 7.875 6.75 8.261719 6.359375 C 8.652344 5.972656 9.1875 5.730469 9.78125 5.730469 L 9.78125 5.613281 C 8.527344 5.613281 7.515625 6.628906 7.515625 7.878906 C 7.515625 9.128906 8.527344 10.144531 9.78125 10.144531 C 11.03125 10.144531 12.046875 9.128906 12.046875 7.878906 C 12.046875 6.628906 11.03125 5.613281 9.78125 5.613281 Z M 7.082031 7.878906 L 7.023438 7.878906 C 7.023438 9.402344 8.257812 10.636719 9.78125 10.636719 C 11.300781 10.636719 12.535156 9.402344 12.535156 7.878906 C 12.535156 6.355469 11.300781 5.121094 9.78125 5.121094 C 8.257812 5.121094 7.023438 6.355469 7.023438 7.878906 L 7.144531 7.878906 C 7.144531 7.152344 7.4375 6.492188 7.914062 6.015625 C 8.394531 5.535156 9.050781 5.242188 9.78125 5.242188 C 10.507812 5.242188 11.167969 5.535156 11.644531 6.015625 C 12.121094 6.492188 12.417969 7.152344 12.417969 7.878906 C 12.417969 8.605469 12.121094 9.265625 11.644531 9.742188 C 11.167969 10.222656 10.507812 10.515625 9.78125 10.515625 C 9.050781 10.515625 8.394531 10.222656 7.914062 9.742188 C 7.4375 9.265625 7.144531 8.605469 7.144531 7.878906 L 7.082031 7.878906 "/>
<path style=" stroke:none;fill-rule:nonzero;fill:rgb(20%,14.509804%,9.803922%);fill-opacity:1;" d="M 7.574219 7.878906 L 7.515625 7.878906 C 7.515625 9.128906 8.527344 10.144531 9.78125 10.144531 C 11.03125 10.144531 12.046875 9.128906 12.046875 7.878906 C 12.046875 6.628906 11.03125 5.613281 9.78125 5.613281 C 8.527344 5.613281 7.515625 6.628906 7.515625 7.878906 L 7.632812 7.878906 C 7.632812 7.285156 7.875 6.75 8.261719 6.359375 C 8.652344 5.972656 9.1875 5.730469 9.78125 5.730469 C 10.371094 5.730469 10.910156 5.972656 11.296875 6.359375 C 11.6875 6.75 11.925781 7.285156 11.925781 7.878906 C 11.925781 8.472656 11.6875 9.007812 11.296875 9.398438 C 10.910156 9.785156 10.371094 10.027344 9.78125 10.027344 C 9.1875 10.027344 8.652344 9.785156 8.261719 9.398438 C 7.875 9.007812 7.632812 8.472656 7.632812 7.878906 L 7.574219 7.878906 "/>
<g clip-path="url(#clip3)" clip-rule="nonzero">
<g clip-path="url(#clip4)" clip-rule="nonzero">
<g clip-path="url(#clip5)" clip-rule="nonzero">
<g clip-path="url(#clip6)" clip-rule="nonzero">
<path style=" stroke:none;fill-rule:nonzero;fill:rgb(96.862745%,96.862745%,91.372549%);fill-opacity:1;" d="M 11.902344 5.964844 C 11.425781 5.957031 10.96875 5.800781 10.59375 5.515625 L 10.21875 5.230469 C 10.050781 5.101562 9.839844 5.035156 9.625 5.042969 L 9.539062 5.046875 C 9.152344 5.058594 8.785156 5.230469 8.527344 5.519531 C 8.339844 5.730469 8.226562 5.992188 8.203125 6.269531 C 8.167969 6.683594 8.03125 7.085938 7.800781 7.4375 L 7.503906 7.902344 C 7.273438 8.257812 7.128906 8.65625 7.078125 9.074219 C 7.03125 9.429688 7.15625 9.785156 7.410156 10.039062 C 7.660156 10.285156 8.011719 10.398438 8.363281 10.347656 L 9.082031 10.242188 C 9.207031 10.222656 9.332031 10.210938 9.457031 10.207031 L 10.441406 10.175781 C 10.625 10.171875 10.808594 10.144531 10.984375 10.101562 L 11.269531 10.035156 C 11.660156 9.9375 12.003906 9.707031 12.238281 9.382812 C 12.402344 9.152344 12.472656 8.871094 12.433594 8.597656 L 12.40625 8.394531 C 12.363281 8.09375 12.386719 7.785156 12.476562 7.492188 L 12.480469 7.484375 C 12.582031 7.144531 12.621094 6.789062 12.59375 6.441406 C 12.585938 6.28125 12.492188 6.144531 12.347656 6.070312 C 12.210938 6.003906 12.058594 5.964844 11.902344 5.964844 Z M 11.902344 5.964844 "/>
</g>
</g>
</g>
</g>
<g clip-path="url(#clip7)" clip-rule="nonzero">
<g clip-path="url(#clip8)" clip-rule="nonzero">
<g clip-path="url(#clip9)" clip-rule="nonzero">
<g clip-path="url(#clip10)" clip-rule="nonzero">
<path style=" stroke:none;fill-rule:nonzero;fill:rgb(0%,0%,0%);fill-opacity:1;" d="M 12.289062 9.394531 C 12.285156 9.402344 12.28125 9.40625 12.277344 9.410156 C 12.035156 9.746094 11.683594 9.984375 11.28125 10.082031 L 11 10.148438 C 10.816406 10.195312 10.628906 10.21875 10.441406 10.226562 L 9.457031 10.257812 C 9.335938 10.261719 9.210938 10.269531 9.089844 10.289062 L 8.371094 10.394531 C 8.007812 10.445312 7.636719 10.328125 7.378906 10.070312 C 7.109375 9.808594 6.984375 9.441406 7.027344 9.066406 C 7.082031 8.648438 7.230469 8.234375 7.460938 7.875 L 7.761719 7.414062 C 7.984375 7.066406 8.121094 6.671875 8.15625 6.265625 C 8.179688 5.980469 8.300781 5.703125 8.492188 5.488281 C 8.757812 5.1875 9.140625 5.011719 9.535156 4.996094 L 9.625 4.996094 C 9.847656 4.988281 10.070312 5.058594 10.246094 5.191406 L 10.621094 5.476562 C 10.992188 5.757812 11.433594 5.910156 11.902344 5.917969 C 12.066406 5.917969 12.226562 5.957031 12.371094 6.03125 C 12.527344 6.105469 12.628906 6.261719 12.644531 6.4375 C 12.667969 6.792969 12.628906 7.152344 12.523438 7.496094 L 12.523438 7.507812 C 12.4375 7.792969 12.414062 8.089844 12.453125 8.386719 L 12.480469 8.589844 C 12.523438 8.875 12.453125 9.160156 12.289062 9.394531 Z M 8.472656 5.667969 C 8.347656 5.847656 8.269531 6.058594 8.25 6.273438 C 8.214844 6.695312 8.074219 7.105469 7.84375 7.464844 L 7.542969 7.929688 C 7.320312 8.273438 7.175781 8.671875 7.125 9.078125 C 7.082031 9.425781 7.199219 9.761719 7.445312 10.003906 C 7.683594 10.238281 8.023438 10.347656 8.359375 10.296875 L 9.074219 10.195312 C 9.203125 10.175781 9.328125 10.164062 9.457031 10.160156 L 10.4375 10.128906 C 10.617188 10.125 10.800781 10.097656 10.976562 10.054688 L 11.257812 9.988281 C 11.640625 9.894531 11.972656 9.671875 12.199219 9.355469 C 12.359375 9.132812 12.425781 8.867188 12.386719 8.605469 L 12.359375 8.402344 C 12.316406 8.089844 12.339844 7.78125 12.429688 7.480469 L 12.433594 7.46875 C 12.535156 7.136719 12.574219 6.789062 12.546875 6.445312 C 12.539062 6.300781 12.457031 6.179688 12.328125 6.113281 C 12.195312 6.050781 12.050781 6.011719 11.902344 6.011719 C 11.414062 6.003906 10.949219 5.847656 10.566406 5.554688 L 10.191406 5.269531 C 10.03125 5.148438 9.832031 5.082031 9.628906 5.089844 L 9.539062 5.09375 C 9.167969 5.105469 8.8125 5.273438 8.5625 5.550781 C 8.53125 5.585938 8.5 5.625 8.472656 5.667969 Z M 8.472656 5.667969 "/>
</g>
</g>
</g>
</g>
<g clip-path="url(#clip11)" clip-rule="nonzero">
<g clip-path="url(#clip12)" clip-rule="nonzero">
<g clip-path="url(#clip13)" clip-rule="nonzero">
<g clip-path="url(#clip14)" clip-rule="nonzero">
<path style=" stroke:none;fill-rule:nonzero;fill:rgb(100%,77.647059%,7.45098%);fill-opacity:1;" d="M 10.503906 6.964844 C 10.5625 7.007812 10.617188 7.050781 10.664062 7.101562 C 10.714844 7.152344 10.757812 7.210938 10.796875 7.269531 C 10.832031 7.328125 10.867188 7.390625 10.890625 7.457031 C 10.917969 7.523438 10.9375 7.589844 10.949219 7.660156 C 10.960938 7.730469 10.964844 7.800781 10.964844 7.871094 C 10.964844 7.941406 10.957031 8.011719 10.941406 8.078125 C 10.925781 8.148438 10.902344 8.214844 10.875 8.28125 C 10.847656 8.34375 10.8125 8.40625 10.773438 8.464844 C 10.730469 8.523438 10.6875 8.574219 10.636719 8.625 C 10.585938 8.671875 10.527344 8.714844 10.46875 8.753906 C 10.410156 8.792969 10.347656 8.824219 10.28125 8.851562 C 10.214844 8.875 10.148438 8.894531 10.078125 8.90625 C 10.007812 8.917969 9.9375 8.925781 9.867188 8.925781 C 9.796875 8.921875 9.726562 8.914062 9.660156 8.898438 C 9.589844 8.882812 9.523438 8.863281 9.457031 8.832031 C 9.394531 8.804688 9.332031 8.769531 9.273438 8.730469 C 9.214844 8.691406 9.160156 8.644531 9.113281 8.59375 C 9.0625 8.542969 9.019531 8.488281 8.980469 8.425781 C 8.945312 8.367188 8.914062 8.304688 8.886719 8.238281 C 8.859375 8.171875 8.839844 8.105469 8.828125 8.035156 C 8.816406 7.964844 8.8125 7.894531 8.8125 7.824219 C 8.8125 7.753906 8.820312 7.683594 8.835938 7.617188 C 8.851562 7.546875 8.875 7.480469 8.902344 7.414062 C 8.929688 7.351562 8.964844 7.289062 9.007812 7.230469 C 9.046875 7.175781 9.09375 7.121094 9.144531 7.070312 C 9.195312 7.023438 9.25 6.980469 9.308594 6.941406 C 9.367188 6.902344 9.429688 6.871094 9.496094 6.847656 C 9.5625 6.820312 9.628906 6.800781 9.699219 6.789062 C 9.769531 6.777344 9.839844 6.769531 9.910156 6.773438 C 9.980469 6.773438 10.050781 6.78125 10.121094 6.796875 C 10.1875 6.8125 10.253906 6.835938 10.320312 6.863281 C 10.386719 6.890625 10.445312 6.925781 10.503906 6.964844 Z M 10.503906 6.964844 "/>
</g>
</g>
</g>
</g>
<g clip-path="url(#clip15)" clip-rule="nonzero">
<g clip-path="url(#clip16)" clip-rule="nonzero">
<g clip-path="url(#clip17)" clip-rule="nonzero">
<g clip-path="url(#clip18)" clip-rule="nonzero">
<path style="fill:none;stroke-width:4;stroke-linecap:butt;stroke-linejoin:miter;stroke:rgb(0%,0%,0%);stroke-opacity:1;stroke-miterlimit:10;" d="M 182.19051 104.674397 C 182.118658 107.710994 181.953261 110.613665 181.332593 113.43534 C 180.805468 116.390941 179.823072 119.265546 178.747132 122.006226 C 177.577649 124.612979 176.274073 127.313161 174.555774 129.704993 C 172.931018 132.230751 171.119175 134.488657 168.986152 136.57214 C 166.853129 138.655623 164.533019 140.471254 162.119364 142.152959 C 159.70571 143.834664 157.104967 145.248517 154.451229 146.301091 C 151.663399 147.447092 148.822573 148.231814 145.888203 148.88261 C 143.087925 149.439978 140.100559 149.729494 137.153741 149.791656 C 134.11338 149.719893 131.341202 149.461273 128.381936 148.934801 C 125.556763 148.314902 122.678593 147.333723 119.934516 146.259115 C 117.190438 145.184508 114.621 143.789119 112.092111 142.166375 C 109.697313 140.450204 107.436607 138.640605 105.350541 136.510223 C 103.264475 134.379842 101.312502 132.156033 99.628711 129.745367 C 98.079013 127.241273 96.663407 124.643752 95.609529 121.9933 C 94.462106 119.208922 93.54232 116.465042 93.024809 113.440878 C 92.46675 110.644068 92.176875 107.660401 92.114636 104.717233 C 92.052396 101.774064 92.351885 98.777966 92.972553 95.95629 C 93.499678 93.000689 94.347982 90.219512 95.558013 87.385405 C 96.727497 84.778651 98.124617 82.212395 99.749372 79.686637 C 101.374128 77.160879 103.185971 74.902973 105.318994 72.81949 C 107.452017 70.736007 109.772127 68.920377 112.185782 67.238672 C 114.599436 65.556966 117.200179 64.143113 119.853917 63.09054 C 122.641747 61.944538 125.482573 61.159816 128.416943 60.50902 C 131.217221 59.951652 134.204587 59.662136 137.244948 59.7339 C 140.057674 59.765166 143.057488 60.064283 146.016753 60.590755 C 148.841927 61.210654 151.626553 62.057908 154.37063 63.132515 C 157.114708 64.207122 159.684146 65.602512 162.078943 67.318683 C 164.607833 68.941426 166.868539 70.751026 168.954605 72.881407 C 171.04067 75.011788 172.992644 77.235598 174.542343 79.739691 C 176.226133 82.150357 177.641739 84.747878 178.789161 87.532256 C 179.84304 90.182708 180.628734 93.020016 181.280337 95.950752 C 181.93194 98.881488 182.128271 101.731229 182.19051 104.674397 Z M 182.19051 104.674397 " transform="matrix(0.0136697,-0.019595,0.0196193,0.0136866,5.959778,9.10223)"/>
</g>
</g>
</g>
</g>
<path style=" stroke:none;fill-rule:nonzero;fill:rgb(0%,0%,0%);fill-opacity:1;" d="M 4.261719 11.753906 C 4.304688 11.753906 4.339844 11.769531 4.367188 11.796875 C 4.394531 11.824219 4.410156 11.859375 4.410156 11.898438 L 4.410156 13.765625 C 4.410156 13.808594 4.394531 13.84375 4.367188 13.871094 C 4.339844 13.902344 4.304688 13.914062 4.261719 13.914062 C 4.214844 13.914062 4.175781 13.902344 4.148438 13.875 C 4.117188 13.847656 4.105469 13.808594 4.105469 13.765625 L 4.105469 12.339844 L 3.507812 13.246094 C 3.492188 13.261719 3.472656 13.277344 3.449219 13.292969 C 3.429688 13.304688 3.410156 13.308594 3.386719 13.308594 C 3.363281 13.308594 3.34375 13.304688 3.320312 13.292969 C 3.300781 13.277344 3.28125 13.261719 3.269531 13.246094 L 2.667969 12.3125 L 2.667969 13.765625 C 2.667969 13.808594 2.65625 13.847656 2.628906 13.875 C 2.601562 13.902344 2.566406 13.914062 2.523438 13.914062 C 2.484375 13.914062 2.449219 13.902344 2.425781 13.875 C 2.398438 13.847656 2.386719 13.808594 2.386719 13.765625 L 2.386719 11.898438 C 2.386719 11.859375 2.398438 11.828125 2.429688 11.796875 C 2.457031 11.765625 2.496094 11.753906 2.539062 11.753906 C 2.5625 11.753906 2.585938 11.757812 2.609375 11.769531 C 2.632812 11.78125 2.652344 11.800781 2.667969 11.820312 L 3.398438 12.929688 L 4.140625 11.820312 C 4.171875 11.773438 4.210938 11.753906 4.261719 11.753906 Z M 4.261719 11.753906 "/>
<path style=" stroke:none;fill-rule:nonzero;fill:rgb(0%,0%,0%);fill-opacity:1;" d="M 6.089844 12.285156 C 6.132812 12.285156 6.167969 12.296875 6.195312 12.328125 C 6.222656 12.355469 6.238281 12.390625 6.238281 12.433594 L 6.238281 13.761719 C 6.238281 14.019531 6.164062 14.214844 6.023438 14.339844 C 5.882812 14.46875 5.695312 14.53125 5.460938 14.53125 C 5.386719 14.53125 5.308594 14.523438 5.238281 14.507812 C 5.164062 14.496094 5.101562 14.476562 5.054688 14.453125 C 4.976562 14.417969 4.941406 14.371094 4.941406 14.308594 C 4.941406 14.300781 4.941406 14.285156 4.949219 14.269531 C 4.960938 14.234375 4.976562 14.207031 5 14.1875 C 5.023438 14.171875 5.046875 14.160156 5.078125 14.160156 C 5.09375 14.160156 5.109375 14.164062 5.125 14.171875 C 5.1875 14.199219 5.242188 14.222656 5.292969 14.238281 C 5.339844 14.253906 5.398438 14.261719 5.464844 14.261719 C 5.785156 14.261719 5.945312 14.097656 5.945312 13.773438 L 5.945312 13.710938 C 5.886719 13.785156 5.816406 13.84375 5.730469 13.886719 C 5.640625 13.925781 5.539062 13.945312 5.429688 13.945312 C 5.257812 13.945312 5.125 13.890625 5.027344 13.785156 C 4.933594 13.675781 4.882812 13.53125 4.882812 13.355469 L 4.882812 12.433594 C 4.882812 12.390625 4.898438 12.355469 4.925781 12.328125 C 4.953125 12.296875 4.988281 12.285156 5.03125 12.285156 C 5.074219 12.285156 5.109375 12.296875 5.136719 12.328125 C 5.164062 12.355469 5.179688 12.390625 5.179688 12.433594 L 5.179688 13.277344 C 5.179688 13.414062 5.207031 13.511719 5.269531 13.578125 C 5.328125 13.640625 5.417969 13.675781 5.539062 13.675781 C 5.65625 13.675781 5.753906 13.636719 5.828125 13.5625 C 5.90625 13.488281 5.945312 13.394531 5.945312 13.277344 L 5.945312 12.433594 C 5.945312 12.390625 5.957031 12.355469 5.984375 12.328125 C 6.007812 12.296875 6.042969 12.285156 6.089844 12.285156 Z M 6.089844 12.285156 "/>
<path style=" stroke:none;fill-rule:nonzero;fill:rgb(100%,77.647059%,7.45098%);fill-opacity:1;" d="M 8.246094 11.882812 C 8.296875 11.910156 8.320312 11.949219 8.320312 12.003906 C 8.320312 12.042969 8.308594 12.078125 8.285156 12.109375 C 8.261719 12.140625 8.226562 12.15625 8.183594 12.15625 C 8.152344 12.15625 8.125 12.148438 8.097656 12.136719 C 7.972656 12.0625 7.832031 12.027344 7.683594 12.027344 C 7.53125 12.027344 7.394531 12.058594 7.277344 12.128906 C 7.15625 12.195312 7.066406 12.292969 7 12.414062 C 6.933594 12.539062 6.902344 12.675781 6.902344 12.835938 C 6.902344 13.003906 6.933594 13.152344 7.003906 13.277344 C 7.070312 13.398438 7.164062 13.496094 7.28125 13.558594 C 7.402344 13.625 7.535156 13.65625 7.683594 13.65625 C 7.835938 13.65625 7.976562 13.617188 8.097656 13.542969 C 8.125 13.53125 8.152344 13.527344 8.179688 13.527344 C 8.222656 13.527344 8.261719 13.542969 8.285156 13.578125 C 8.3125 13.609375 8.324219 13.640625 8.324219 13.679688 C 8.324219 13.703125 8.316406 13.726562 8.304688 13.75 C 8.289062 13.769531 8.273438 13.785156 8.25 13.796875 C 8.167969 13.84375 8.078125 13.878906 7.980469 13.90625 C 7.878906 13.933594 7.78125 13.945312 7.683594 13.945312 C 7.484375 13.945312 7.300781 13.902344 7.136719 13.8125 C 6.964844 13.722656 6.832031 13.597656 6.734375 13.429688 C 6.632812 13.257812 6.585938 13.0625 6.585938 12.835938 C 6.585938 12.628906 6.632812 12.441406 6.726562 12.273438 C 6.824219 12.105469 6.957031 11.972656 7.121094 11.878906 C 7.289062 11.78125 7.476562 11.734375 7.683594 11.734375 C 7.886719 11.734375 8.074219 11.78125 8.246094 11.882812 Z M 8.246094 11.882812 "/>
<path style=" stroke:none;fill-rule:nonzero;fill:rgb(100%,77.647059%,7.45098%);fill-opacity:1;" d="M 10.167969 13.109375 C 10.167969 13.265625 10.132812 13.410156 10.058594 13.539062 C 9.988281 13.667969 9.890625 13.765625 9.765625 13.839844 C 9.640625 13.910156 9.503906 13.945312 9.355469 13.945312 C 9.203125 13.945312 9.066406 13.910156 8.941406 13.839844 C 8.816406 13.765625 8.71875 13.667969 8.648438 13.539062 C 8.574219 13.410156 8.539062 13.265625 8.539062 13.109375 C 8.539062 12.949219 8.574219 12.800781 8.648438 12.671875 C 8.71875 12.542969 8.816406 12.441406 8.941406 12.371094 C 9.066406 12.296875 9.203125 12.261719 9.355469 12.261719 C 9.503906 12.261719 9.640625 12.296875 9.765625 12.371094 C 9.890625 12.441406 9.988281 12.542969 10.058594 12.671875 C 10.132812 12.800781 10.167969 12.949219 10.167969 13.109375 Z M 9.875 13.109375 C 9.875 12.996094 9.851562 12.898438 9.804688 12.808594 C 9.757812 12.722656 9.695312 12.652344 9.617188 12.605469 C 9.539062 12.558594 9.449219 12.535156 9.355469 12.535156 C 9.257812 12.535156 9.167969 12.558594 9.089844 12.605469 C 9.011719 12.652344 8.949219 12.722656 8.902344 12.808594 C 8.855469 12.898438 8.832031 12.996094 8.832031 13.109375 C 8.832031 13.214844 8.855469 13.3125 8.902344 13.398438 C 8.949219 13.488281 9.011719 13.554688 9.089844 13.601562 C 9.167969 13.648438 9.257812 13.675781 9.355469 13.675781 C 9.449219 13.675781 9.539062 13.648438 9.617188 13.601562 C 9.695312 13.554688 9.757812 13.488281 9.804688 13.398438 C 9.851562 13.3125 9.875 13.214844 9.875 13.109375 Z M 9.875 13.109375 "/>
<path style=" stroke:none;fill-rule:nonzero;fill:rgb(100%,77.647059%,7.45098%);fill-opacity:1;" d="M 12.039062 13.109375 C 12.039062 13.265625 12 13.410156 11.929688 13.539062 C 11.855469 13.667969 11.757812 13.765625 11.632812 13.839844 C 11.507812 13.910156 11.371094 13.945312 11.222656 13.945312 C 11.074219 13.945312 10.933594 13.910156 10.8125 13.839844 C 10.6875 13.765625 10.589844 13.667969 10.515625 13.539062 C 10.445312 13.410156 10.410156 13.265625 10.410156 13.109375 C 10.410156 12.949219 10.445312 12.800781 10.515625 12.671875 C 10.589844 12.542969 10.6875 12.441406 10.8125 12.371094 C 10.933594 12.296875 11.074219 12.261719 11.222656 12.261719 C 11.371094 12.261719 11.507812 12.296875 11.632812 12.371094 C 11.757812 12.441406 11.855469 12.542969 11.929688 12.671875 C 12 12.800781 12.039062 12.949219 12.039062 13.109375 Z M 11.742188 13.109375 C 11.742188 12.996094 11.71875 12.898438 11.671875 12.808594 C 11.628906 12.722656 11.566406 12.652344 11.488281 12.605469 C 11.40625 12.558594 11.320312 12.535156 11.222656 12.535156 C 11.125 12.535156 11.039062 12.558594 10.957031 12.605469 C 10.878906 12.652344 10.816406 12.722656 10.769531 12.808594 C 10.722656 12.898438 10.703125 12.996094 10.703125 13.109375 C 10.703125 13.214844 10.722656 13.3125 10.769531 13.398438 C 10.816406 13.488281 10.878906 13.554688 10.957031 13.601562 C 11.039062 13.648438 11.125 13.675781 11.222656 13.675781 C 11.320312 13.675781 11.40625 13.648438 11.488281 13.601562 C 11.566406 13.554688 11.628906 13.488281 11.671875 13.398438 C 11.71875 13.3125 11.742188 13.214844 11.742188 13.109375 Z M 11.742188 13.109375 "/>
<path style=" stroke:none;fill-rule:nonzero;fill:rgb(100%,77.647059%,7.45098%);fill-opacity:1;" d="M 13.695312 13.660156 C 13.726562 13.691406 13.742188 13.726562 13.742188 13.765625 C 13.742188 13.808594 13.726562 13.84375 13.695312 13.871094 C 13.664062 13.898438 13.628906 13.910156 13.59375 13.910156 C 13.550781 13.910156 13.515625 13.894531 13.488281 13.863281 L 12.878906 13.21875 L 12.695312 13.382812 L 12.695312 13.765625 C 12.695312 13.808594 12.679688 13.84375 12.652344 13.871094 C 12.625 13.902344 12.589844 13.914062 12.550781 13.914062 C 12.507812 13.914062 12.472656 13.902344 12.441406 13.871094 C 12.414062 13.84375 12.402344 13.808594 12.402344 13.765625 L 12.402344 11.78125 C 12.402344 11.738281 12.414062 11.703125 12.441406 11.675781 C 12.472656 11.648438 12.507812 11.632812 12.550781 11.632812 C 12.589844 11.632812 12.625 11.648438 12.652344 11.675781 C 12.679688 11.703125 12.695312 11.738281 12.695312 11.78125 L 12.695312 13.035156 L 13.449219 12.339844 C 13.484375 12.308594 13.519531 12.292969 13.558594 12.292969 C 13.59375 12.292969 13.625 12.308594 13.652344 12.335938 C 13.683594 12.367188 13.695312 12.398438 13.695312 12.433594 C 13.695312 12.472656 13.675781 12.507812 13.640625 12.542969 L 13.105469 13.015625 Z M 13.695312 13.660156 "/>
</g>
</svg>
